<?xml version="1.0" encoding="utf-8"?>
<!-- Generator: Adobe Illustrator 23.0.1, SVG Export Plug-In . SVG Version: 6.00 Build 0)  -->
<svg version="1.1" id="Ebene_1" xmlns="http://www.w3.org/2000/svg" xmlns:xlink="http://www.w3.org/1999/xlink" x="0px" y="0px"
	 viewBox="0 0 512 512" style="enable-background:new 0 0 512 512;" xml:space="preserve">
<style type="text/css">
	.st0{fill:#1D436F;}
</style>
<path class="st0" d="M300.2,113c-13.7-10-49.6-18.1-72.1-16.2c-22.5,1.9-56.1,8.9-78.7,28.8c-15.9,14-80.6,67.7-36.6,165.9
	c9.6,21.3,62,82.9,134.8,76.4c46.4-4.1,64.5-18.8,79.7-33.2c12.2-13.9,22.7-29.1,31.2-45.5c5-13.5,8.8-27.5,11.5-41.6
	C384.3,153.8,305.1,116.7,300.2,113z M235.7,216.6c-22.1-8-33.5-32.4-25.5-54.5c5.6-15.5,19.6-26.3,36-27.9
	c17.8-0.8,44.1,17.1,46.4,34.4C296.6,197.5,274,223.1,235.7,216.6L235.7,216.6z"/>
<path class="st0" d="M455.9,132.7c-16.4-22.8-36-43-58.4-59.9c-6.2-4.3-37.9-25.6-45-30c-7.8-4.4-15.8-8.4-24-12
	c-66.8-17.7-109.8-12.1-110.8-12c-46.9,2.1-64.4,9.2-91,26.9c-9,5.8-17.5,12.3-25.5,19.5c-21.3,19.5-39.5,42.3-53.9,67.4
	c-3.8,6.8-8.5,14.2-12,21c-19.9,39.1-28,94.5-20.9,145.3c2.5,18.1,6.7,35.9,12.7,53.1c19.8,49.9,37.6,71.3,42.7,77
	c21.1,23.2,48,40.2,77.9,49.4c88.5,27.6,140.5,13.5,146.8,12c39.6-9.2,66.6-24.5,98.6-44.9c30.8-20.2,56.8-46.8,76.4-77.9
	c14.1-21.7,23.3-46.2,27-71.8c6-25.2,5.5-51.5-1.5-76.4c-3-11.8-4.2-24.8-9-39C481.6,168.3,457.9,135.5,455.9,132.7z M472.4,261.7
	c-0.5,6-1.4,16.8-2.6,23.2c-1.6,11.6-4.8,23-9.4,33.8c-3.3,8.4-7.1,16.6-11.4,24.5c-3.3,5.6-7,10.9-11.1,15.9
	c-64.9,81.9-142.1,84.1-149.8,85.3c-19.9,3.1-40.1,3.1-59.9,0c-16.3-4.5-32.3-10-47.9-16.5c-13.4-7.8-26.4-16.3-38.9-25.5
	c-26.4-21.2-39.3-28-56.9-56.9c-15.3-24-24.6-51.4-27-79.8c-2.2-17.4-2.7-34.9-1.4-52.4c1.1-10.8,21.7-83.9,70.4-122.9
	c23.8-19,58.9-30.8,91-35.9c28.4-3.8,57.3-2.8,85.4,3c13.9,4,27.4,9.1,40.4,15.2c36.9,15.9,68.2,42.5,89.8,76.4
	c11.1,14.7,20.2,30.8,27,47.9c9.8,20,14,42.3,12.3,64.6L472.4,261.7z"/>
</svg>
