<?xml version="1.0" encoding="UTF-8"?> <svg xmlns="http://www.w3.org/2000/svg" id="deepwave_logo_white" data-name="deepwave logo white" viewBox="0 0 1137.87 456.76"><defs><style>.cls-1{fill:#fff;}</style></defs><title>LOGO DEEPWAVE 2022 white</title><path class="cls-1" d="M365.52,234.6a6.57,6.57,0,0,0-1.62,12.73c5.92,1,9.41-2.91,8.79-7.41C372.33,237.24,368.26,234.46,365.52,234.6Z" transform="translate(-1.63 -0.43)"></path><path class="cls-1" d="M299.83,409.33c23.05-19.2,43.82-21.8,55.62-22.2,5.47-.19,11.14-.69,15.79.07,6,1,13.25,3.61,18.83,5.2s37.62,13.14,50.63,16.23c2.17.51,13,2.27,21.43.65,17.76-3.42,34-10.4,38.95-12C544.93,383,553,383.21,555.57,382.94c14-1.42,24.41,2.79,28.6,4.1,9.9,3.09,15.46,6.16,21.81,8.73,3.74,1.52,7.12,3.51,10.75,5.14,30.41,13.72,70.76,32,110.26,41.8,4.92,1.21,24.88,4.69,32.46,5.19A168.13,168.13,0,0,0,795.52,446c25.6-4.93,68.88-19.46,72.34-20.51,23.37-7.15,41.28-13.3,56.43-18.05,10.76-3.38,21.18-5.14,31.53-7.11,17-3.25,37-4.87,44.51-4.87,4,0,10.4.42,13.46.76,1.53.17,7.5,1.23,9.18.7,4.26-.32-2.85-1.91-4.66-2.11-.63-.07-7.59-1.19-10.36-1.39-1.65-.13-12.89-.88-14-.88-6.81,0-5.59-.19-12.82-.16-9.54,0-14.93.65-26.13,2a386.76,386.76,0,0,0-55.22,11c-3.68,1.12-46,13.83-93.76,24.06-1,.22-20.61,3.63-34.9,4.55-12.66.81-32.78.32-48.53-3.12-24.83-5.43-55.33-17-75.46-27.07-8-4-24.67-13-38.63-20.82-6.88-3.86-19.3-8.38-20.93-8.88a79.78,79.78,0,0,0-15.48-2.36,95.86,95.86,0,0,0-23.8,2.68c-3.61,1-5.33,1.47-8.69,2.46-2,.59-30.09,9.39-56.09,18a92.19,92.19,0,0,1-22.37,4.37c-6.59.37-11.7-.32-17.36-.87-18-1.72-66.22-22-80-21.85-14.61.17-19.32,2.92-25.16,2.11-2.76-.38-5.19-.78-7.47-2.23-3.5-2.21-7.68-7.76-8.18-12.38-1.13-10.49,1.88-19.52,1.4-30.15-.25-5.56-1.52-11.57-2.8-17.53-1.22-5.63-2.18-11.37-4-16.59-.89-2.6-1.65-5.17-2.57-7.71-2.43-6.73-6-13.47-8.88-19.4-1.25-2.55-2.85-4-4.2-6.07-.56-.85-.84-1.81-1.41-2.58s-1.37-1.3-1.87-2.1-.51-1.67-.93-2.34c-1.21-1.89-3.18-3.51-4.67-5.37-4.74-5.91-9.59-10.37-15.19-15.66-5.24-2.09-8.42-6.23-14-7.94-1.28-.92-2.41-2.38-4-3.28-1.86-1.06-4.88-1.62-7.71-2.8-3.83-1.6-7.68-3.56-11.69-4.67-1.39-.39-2.4-.34-4-.71-1.3-.3-2.51-1.34-3.74-1.63-1.06-.25-2.46,0-3.74-.24-2.16-.46-3.87-1.82-6.31-.93-.89,1.38-3.59.89-4,2.57s1,1.79,1.63,3.27c-1.54.52-2.86,1.58-4.44,1.4s-2.61-2-4-2.57c1.68-.21,2.63-1.26,2.34-2.8-.62-3.25-7.07-1.79-11.22-1.87-3.19-.06-5,.51-5.84,2.57-1.46.25-2.82.61-2.34,2.81,3,2.33,9.34.11,10,4.9-1.36,2.7-6.83,2.51-6.08,6.55.88,1.19,2.43.59,3.74.7s2.82.49,4.21.47c2.08,0,4.3-.72,6.08-.47,2.19.3,4.39,2.92,6.07.47-.33-3-3.41-3.29-4-6.08.68-1.32,1.68-1,3.5-.94,1.14-.81,1.38-2.51,2.81-3,1.2-.19,1.53.49,2.57.46,1.13-.19,1.32-1.33,2.57-1.4,3.74,1.85,10.44,1.09,14.26,2.81-1.79-.7-.62.72-1.41,1.4-3.06.6-5.56-1.58-8.64-1.87-1.77-.17-3.47.5-5.61.47,1.46,2.81,6.44,2.12,7,5.84-.32.19-.31.76-.47,1.17-.54,1.39-.84.62-1.87,1.63-.26.27-.27.53-.47.94a3.16,3.16,0,0,1-3,1.4c-.94,2.57-3.58,3.44-3,7.48.65,1.11,1.77,1,2.1,2.33.37,1.47-.78,3.95,0,5.85.7.49.77,1.44,1.4,2.33s1.5,1.11,1.64,2.11c.17,1.19-1,2.7-.94,3.74a5.51,5.51,0,0,0,.94,2.57c.74,1.09,2.18,1.41,2.8,2.8s-.13,2.79.24,3.74c.72,1.86,4,2.63,6.31,2.57.87-2-.41-4.79,1.87-5.37,1-.25,1.93.51,3.27.7,1,1.31,1.49,3.18,3,4,1.59-1.19,3.94-1.21,4.44-2.8s-1.41-2.55-1.87-4.44c-.36-.66-1.67-.36-1.87-1.17.61-.33-.17-1.21-.23-1.64,1.15-.73,2.43-2.26,1.86-4-.07-1.1-2-.35-2.33-1.17,0-1.35-1.89-2.76-.7-3.74,1.55,0,1.19,1.92,2.8,1.87.31.39-.08,1.49.7,1.4,1,.32,1.82,1,2.81.94s1.51-.91,2.57-1.4c1.52-.72,3.29-1,4.2-1.87.29.49,1.2,1.07,1.64.7.29,1.76.85,2.35.7,3.74-.24,2.27-3,3.83-2.8,5.37s2.42,1.13,2.57,3.27c-1.45,2.61-3.39,4.71-4.68,7.48-3.36.3-5,2.27-7.48,3.51-.38-.39.15-1.71-.7-1.64-.68-.81-1.69-.73-2.57-1.63-.68-.71-1-1.89-1.63-2.58-1.6-1.65-2.78-1.85-4.44-.7-.16,1.79.74,2.53,1.4,3.51-.53.94.43,2.14.47,3.27-2.42,1.56-2.62,5.33-4,7.95-2.21-.15-3.16,1.29-4.44,2.33-.56.47-2.06,1.46-2.33,2.11-1.72,4.05,3,7,3,9.35a2.44,2.44,0,0,1-1.63,2.57c-1.66.46-3.41-1.42-4.44-1.41-1.29,0-2.43,1.32-3.27,2.11-1.68,1.56-2.72,2.72-2.11,5.61.15.7.3,1.85.47,2.33.28.79,1,1,.93,1.87-.05,1.36-1.84,2.61-2.33,3.74a19.24,19.24,0,0,0-.94,4.21c-.25,1.32-.89,2.87.47,4,2.07-.41,3.27-1.53,5.14-1.17,1.24.24,2.21,1.81,3.74,3,1.12.9,2.76,1.44,3.51,2.11,1,.88,1.2,2.69,2.57,2.56,3.1-1.95,3.79-6.33,7.48-7.71.39-1.53-.17-2.76,0-4.67.06-1.18,1.62-.87,1.63-2.1a4.27,4.27,0,0,1-.23-3.28c.42-1.34,1.23-1.63.93-3-.24-1.15-1.82-1.06-2.1-2.58-.62-3.36,1.49-3.48,4-4.44,1.59,1.93,4.93,2.09,5.84,4.68a4.4,4.4,0,0,1,1.87.23c.72,1.15,1.84,1.91,2.58,3,2.71.24,3.79,2.12,3.73,5.14-1.67.49-3.25.51-4.44,1.87a5.55,5.55,0,0,0,3.51,0c1.15.25,1,1.78,2.57,1.64.11-1.36-.85-1.65-.7-3,2.15-.86,1-4,1.87-5.38,1.5-.8,1.91,1.31,3.5,1.17-.78-4.12-5.83-4-8.18-6.54,0-3-3.73-3.32-2.33-7-1-.08-1.3-.89-1.87-1.4.06-.8.59-1.13.47-2.11,1.87.12,2.89-1.72,4.44-1.17.26,1.75-.45,2.52-.94,3.51,1,.29,2.38.27,2.81,1.17.26,4.82,4.41,6.14,7.71,8.88,1.23,1,2.23,3.38,3.27,3.74,2.36.82,4.19-.54,5.38-1.87-.16-1.29-2.08-.83-2.34-2.34-.2-1.15.9-1.69,1.4-3a5.32,5.32,0,0,0,.23-3.74c-.64-.68-1.87-.77-2.57-1.4.1-1.48-.79-2,0-3,2.3-.88,2.79,1.67,4.21,2.11,1.17.35,2.58-.12,4.21-.24,1.05-1.6,2.58-3,2.1-4.91,3.09-.35,2.24,3.22,3.51,4.68.16.87-.4,1-.24,1.87.82,1.44,1.23,3.29,2.34,4.44-1.38,2-1.66,5-2.81,7.24-2.26,1.71-6.16,1.78-5.84,6.08-2.39.94-2.14,4-1.63,6.78-.79,1.58-2.87,1-4.21,1.63-.62.95.36,3.48-.94,3.74-1.08.66-1.53-1-3.27-.47-1,.55-.64,2.48-2.33,2.34-.83-.33-.3-1.33-.24-2.1-2.46-.11-2.84-2.3-5.37-2.34-1.28-1.59-2.72-3.28-4.68-3-1.64.21-3.26,2.95-5.14,4.21-1,.64-1.79.82-2.57,1.4-2.2-.25-2.63,1.27-4.67,1.17.75-.65.07-.31-.24-.46-1.89-1-5,.27-6.31,1.63s-2.7,5.2-3.5,7c-.39.89-.58,1.9-.94,2.57s-1,1.05-1.4,1.64c-2,3.25,1.3,5.31.7,8.65-.19,1.05-1.49,1.67-1.87,2.8-.48,1.42,0,2.62-.47,4-.75,2.05-3,2.81-4.44,4.91a12.33,12.33,0,0,0-1.63,4.44c-.41,3.73,1.4,5.23,3,6.78a15.29,15.29,0,0,1,.7,2.34c.53.56,2.32.07,2.57,1.4.17.9-1.06,1.88-1.64,2.8-.76,1.22-1.89,2.84-1.4,4.44.67,2.16,4.23,1.61,5.61,4A9.09,9.09,0,0,0,237,394.6c2.79-.53,4.9,1.74,7,2.11,1.29.22,2.49-.33,3.74-.24,2.2.17,3.92,1.16,5.84.94a23.08,23.08,0,0,0,5.84-2.1c.74-.33,1.63-.4,2.11-.71,1.84-1.17,2.59-3.79,5.37-3.73a11.68,11.68,0,0,0,7.95,2.57c1.18,3.19-.62,5.54-1.64,7.47-.43.81-.7,1.82-1.17,2.57-1.47,2.39-4.66,4.17-4.91,6.78-.12,1.28.71,2.33.94,3.74-.74,1-1.63.82-3.27,1.17a23,23,0,0,0-5.61,7c-3.11.15-4.22,2.79-5.38,4.21a58.37,58.37,0,0,0-7.71,4.91c-2.14,0-2.76,1.6-4.67,1.87-.38.94-1.79.86-2.11,1.87-1.66,0-3,1.43-4.2,1.87-.61.21-1.28,0-1.87.23-.92.35-1.92,1-2.81,1.4s-2,1-3,1.4a24.13,24.13,0,0,1-5.37.94,23.17,23.17,0,0,1-4.21.23c-.9-.08-1.67-.64-2.57-.7a26.39,26.39,0,0,0-8.88,1.4c-2.51.7-5.7,1.53-7,3-3.23-.19-6,1.62-9.35.94-1-.2-1.73-.78-2.8-.94-3-.43-6.15.19-8.41-1.4-.06-3.14-2.84-3.55-3.74-5.84a5.11,5.11,0,0,0,3-2.57c2.64,2.2,7.71,1.3,10.29-.24a21.45,21.45,0,0,0,1.4-3.27c.94-1.46,2.47-2,2.57-3.74.06-1-.83-2.07-.94-3.27-.44-4.95,6-5,5.61-8.65-.11-1.1-1.06-1.6-1.87-2.33a10.81,10.81,0,0,0-2.33-1.88c-3,.54-5.06-1.53-7.48-1.86-.58-.08-1.31.25-1.87.23-2.25-.07-4.33-1.39-7-1.17-2.67-1.31-5.06-2.88-7.95-4-3.35-3.45-5.16-7.25-12.39-6.55.65-4.29-1-5.29-2.56-7.71-2-3.13-3.9-7.15-8.65-6.78-1.91-1.05-3.43-2.49-5.38-3.5-1.28-2.27-3.66-4.37-4.67-7.71-.59-1.95-.54-3.78-1.64-5.14-1.38-1.72-3.46-2.37-6.07-2.58-1.1.75-.4,2.37-1.17,3-.28-3.15-2.86-4-5.38-4.91-1.15.41-1.19,1.93-1.87,2.81-1.32.87-2.95,1-3.27,2.34-.25,1,.82,2.51,1.17,4.2a23.14,23.14,0,0,1,.47,3.27c0,.86.38,2.32-.47,2.81-1.61-.07-.5-2-1.87-2.34a4.69,4.69,0,0,0-2.1.23c-.38,1.24-.79,3.71.7,4.21-1.47.89-1.06,3.1-2.57,3.51a3.82,3.82,0,0,1-3.28-1.4c-.38-.62,0-1.47-.46-2.58-.26-.66-.88-1.09-1.17-1.63-1-1.74-.65-3.25-.94-5.14-.88-.77-2,.14-3-.47-2-3.82.37-7.05.93-10.52.21-1.29-.29-2.24-.47-3.5a36,36,0,0,0-.23-4c-.34-1.37-1.21-2.19-1.17-3.27s.76-1.3,1.17-2.33c.17-.44.29-1.46.47-2.11.73-2.69.38-3.36-1.64-4.2,1.16-.7-.61-1.25-.93-1.87-2.65.56-5,2.13-4,5.61-.75.8-2.35.76-3.5,1.16-1.77,2.79-6,1.82-6.78-1.16.57-1.15,2-2,2.1-3.74s-1.5-3.17-1.87-5.14a34.69,34.69,0,0,1-.23-7c.35-2.32,2.26-3.14,2.1-5.85a8.82,8.82,0,0,0,3-1.87c2-1.7,2.77.3,4.44,1.17.31.16,1,.1,1.41.23,1.26.45,2.35,1.78,4,1.41,1.56-1.12,1.26-3.14,3-4.21s4.44-.7,7.24-.23c.26,1,1.28,2.24.94,4.44-.14.85-1.12,1.58-1.41,2.57a9.89,9.89,0,0,0-.23,3.27c.21,1.24,1.35,2.65,1.64,4,.47,2.22.14,3.83,1.4,4.68,2.52,1.68,3.59-1,4.44-2.57.88-4.43-2.36-8-1.17-11,1.11-2.75,3.57-4.93,5.61-7.24-.36-1.2-.11-3-.47-4.21,1.07-3.08,5.23-3.16,8.65-3.27.58-.59.92-1.42,1.63-1.87a9.53,9.53,0,0,1,.94-4.44c.32-.56.87-.63,1.17-1.17s.28-1.38.7-2.1c.79-1.38,2-2.33,1.63-4.44.83-.44,1.57-1.4,2.57-1.64a3.38,3.38,0,0,1,2.81.7c.09,2.26-2.34.21-2.81,1.17s0,2.62-.7,3.27c.89.41,2-.86,2.11.23.14,2.1-3,.87-3.27,2.58,1,2.2,3.69,0,4.9-.47,1.18-.17,1.31.72,2.57.47,2.43-1.55,3.33-4.62,7.48-4.44-.06-2-1.89-2.51-2.1-4.21-.12-.94.89-1.75.47-3.27-1.27-.52-2.58,0-3.74-.24-1.1-.71-.68-1.91-1.87-2.57-1.43-.79-3.69.12-5.14-1.17.73-1.83,3.23-2.95,5.37-3.74,1.45-.53,4.35-1.37,5.84-1.16,1.11.15,1.58,1.06,2.58,1.16s1.47-1.15,2.1-.46c-1.07,2.23-6.95,2.35-6.78,5.37,0-.4.33.51.29.54,1.35,2.19,3.94.39,5.55-.07s3,0,4.44,0c2.24,0,4.18.29,5.61-.47.78-1.17.15-2.08,0-3.5,0-1,.94-.94.7-2.11-.67-.24-1.44-.59-2.33-.93S161,283.27,161,282c0-2,3.17-1,5.38-1.17,1.3-.07,2.35-.7,3.27-.47,1.15.3,1.27,1.47,1.87,1.87,1.67-.55,1.87-2.08,3.74-2.33s3.61,1.08,5.61.23c.41-1-1.22-1.42-.7-3.27.73-.79,2.75-1.38,1.87-3s-2.49-.61-4.44-1.4-2.91-2.85-4.68-2.57c-1.06.16-1.35,1.34-2.34,2.1-.77-1.15-3.28-1.52-4.67-.7-.77-1.21-2.26-1.19-2.1-2.57.2-1.71,2.84-1.08,3.74-2.57.63-.75-.35-1.39-.24-2.34,1-1.38,2.49-2.08,1.41-4.44.87-1.43,2.59-1.07,3.5-2.1,2.14-2.4-.8-5.78.23-8.88-1.57-.09-2.76-.18-3-1.17-.59-2.15,3.11-2.82,5.14-2.57-.19-1,.32-1.95,0-2.34-1.83-.66-6-1.64-8.18-1.17-1.07.24-1.81,1.2-2.81,1.64s-1.54.32-2.33.7c-.54,2.35-2.87,2.89-4.44,4.21-.32,3.43,3,3.18,2.1,7.24-.81,1.89-4.54,1.94-4.67,3.74-.37,1,1.29,0,.93.93-1.47.3-2.29-1-3.5-.23-.84,0-.19,1.53-.71,1.87-2.23.28-2.33,3.87-4.44,3.51.26-1.38,1.88-1.4,1.64-3.28,2.55-.85,4-6.57,1.4-8.41-2.29-.35-5.73.57-7.24-1.4-.72-1.63.12-3.58.46-4.91,2.94-1.58,4.93-4.11,9.12-4.44,1-.9,1.32-2.42,3.5-2.1.79-.62.82-2,1.87-2.34,1.71.65,1.56,1.56,3.28,1.4,1.4-.12,2.58-1.94,4-.93.94-.23.68-1.66,2.1-1.4,1.47,1.07,1.19,3,3,3.27,1.61.25,2.94-1.44,4.91-1.4.33-4.2,3.73-5.31,6.31-7.25,2.79,1.32,9.48,2.85,11-.47.1-1.3.28-1.32-.7-1.63,5-2.35-2.34-4.57-1.87-7.25.29-1.66,2.67-.88,2.1-3s-5.63-.67-7.71-.7c-1.29,0-2.55-.54-4-.46-1.69.09-2.21.79-3.27,1.16-1.56.56-3.42.47-5.14.94-.67.18-1.61.68-2.34.93a21.58,21.58,0,0,0-5.84,2.57c-2.38,0-3.59,1.09-6.31.71-1.68.89-2.87,2.27-4.68,3-1.46-.18-1.94-.15-2.57.24-1.7,1.06-1.42,2.11-2.57,3.74-.11.16-.64.63-.93.93-1,1.08-1.92,1.06-3.28,1.64a17.1,17.1,0,0,1-1.87.93c-1.3.37-3.16,0-4.9.7-.95.4-1.29,1.5-2.34,2.11-3.06,1.06-4.85,3.41-6.31,6.07-1.38.34-2,1.41-3.51,1.64-.57.59-1,1.3-1.63,1.87-2,.18-3.23,1.86-4.68,3s-3.11,1.9-4,3.74c-.47,1-.2,2.36-.7,3.5a15,15,0,0,1-3.51,3.74c-1.29.92-3.26.84-4.9,2.1a15,15,0,0,0-2.81,4c-.74,2.4.57,4,.24,5.84-.26,1.47-1.55,2.65-2.81,3.74a10.28,10.28,0,0,1-3,5.61c-.46.46-.14,1.33,0,1.87-2.78,3-5.39,6.14-7.94,9.34-4.55,3.43-10.67,6.16-16.6,8.42A32.63,32.63,0,0,1,65,303.93a41.16,41.16,0,0,1-12.14.5,51,51,0,0,1-13.33-3.77,50,50,0,0,1-16.13-14.73c-1.4-2.06-3.2-4.14-4.2-6.31-2.11-4.52-4.33-11.1-3.34-17.38,1.3-8.28,5.26-13,6.61-15.1,4.43-6.81,13.88-14.08,15.89-15.66a165.48,165.48,0,0,1,19.16-12.39c12.06-7,27.72-13,33.66-15.65,5.45-2.42,45.32-16,63.33-22,31.43-10.44,54.7-10.53,66.6-11.45,4.07-.32,29.85-.08,38.8.7,8.36.73,17.41,1.66,25.24,2.34,6.48.55,26.07,2.93,30.15,3.27,4.88.4,39.43,4.44,65.9-.7,17.86-3.47,29.5-6.58,36.69-9.12,37.3-13.17,77.63-32.69,84.84-35.52,2.79-1.69,45-19.45,50.48-21.27S593,95,635.2,92.66c26.22-1.48,50,3.21,56.73,3.71,30.52,2.28,133.46,45.68,137.24,47.47s39.1,15.65,47,18.7c6.1,2.36,45.32,14.64,54.69,17.06,18.34,4.74,74.22,14.78,115.22,17.76,15.1,1.1,43.72,4.31,45.33,4.44s13.41.26,16.6,1.4c-.25-2.45-3.43-2.35-4.91-2.57-7.24-1.06-14-1.8-21-2.8-9.19-1.3-68.86-10.85-69.65-11-82.21-14.51-139.5-37.07-180.88-54.92L807,121.15l5.15-17.46H855.5l6.19,20.42h40L855.24.43H813.55l-39.85,106c-5.45-2.38-12.74-5.47-21.25-8.79L773.89.43H737.78L724.69,69.57,705.52.43H669.35L650.22,69.67,637.15.43h-36.3l17,76.42c-12.46,1.65-23.07,3.73-28.17,4.92-7.75,1.81-28.86,8.52-34,10.66-6.62,2.77-16.33,6.95-27,11.59V78.21h20.92q23.12,0,34.38-10.54t11.26-29.28q0-18.23-10.33-28.09T553.9.43H490.37V121c-8.64,3.88-16.07,7.27-20.87,9.55-6.38,3-58.82,27.36-66,30.28-.91.38-23.21,10.23-42.85,11.2a310.11,310.11,0,0,1-45-1.28c-9.09-1-37.62-5-43.23-5.61-25.89-3-30.76-3.66-44.17-3.74a215.3,215.3,0,0,0-39.26,3.27c-.8.15-18.72,4.16-22.2,5.14-11,3.09-21.79,6.47-32.26,9.58-7.69,2.3-25.08,8.57-26.64,9.12-2.83,1-28.2,10.46-44.4,18.46-5.25,2.59-21.07,10.65-23.61,12.15-1.24.74-16,8.81-21.5,14.26-4.09,4.06-4.25,2.6-11.07,12.33-1.31,1.88-5.84,8.12-5.75,19.45.06,8.16,3,14.15,5.37,19.87,4.81,11.53,11.71,20.05,18.47,29.68C29.88,321,35,326.53,39.72,332.44S50,343.8,55.15,349.27,81.63,376.21,86,382.45c3.3,4.71,27.36,33.38,27.58,33.66,1.82,2.34,20.29,18.27,26.88,22.43a110.42,110.42,0,0,0,12.15,6.31c2.11,1,34,16.36,68,11.33a125.71,125.71,0,0,0,24.05-5.95c4.48-1.63,17.5-8.49,29.51-17.91C286.67,422.54,293.68,414.46,299.83,409.33Zm-11.45-126c0,2.1-1.15,5.72-4.44,4.44-1,.11-1.18,1-2.57.7-1,1.22-2.37,2-2.34,4.21-1.3-.42-.95-2.08-1.4-3-.53-1.14-1.84-1.93-1.87-3.27-.39-.77-1.26-1.08-1.87-1.64.2-1.07.82-2,.7-3.27-.08-.89-1-1.65-1.17-2.57a5.58,5.58,0,0,1,2.11-5.37,5.55,5.55,0,0,0,4.2-.24c0-2,.11-3.79,1.87-4,.59,1.05-.41,3.69,1.64,3.27,0,.58,0,1.14-.47,1.17.64.69,1.08,1.57,2.11,1.87.83-.26.92-1.26,1.87-1.4,1,.5,1.54.11,2.57.47.82,2.42.39,4.72,2.57,5.6-.74,1-.22,1.43.23,2.34C290.86,283.36,290.26,283.28,288.38,283.36Zm-2.1,38.1c1-.25.28-1.06.7-1.64.62-.07.77.32.7.93,2.75,1.08,3.64,4,6.31,5.15,1.8-.7,2.51.48,4.67.46.47,1.8,2.79,1.73,3.28,3.51.47.38,1.22.49,1.63.94v.93c1,.7,1.75,1.68,3,2.1a34.86,34.86,0,0,0,3,6.08h1.4c1.24,1,.89,3.63,1.87,4.91-.26,1.53-.75,2.79,0,4.2-1.67,1.59.26,5.33-.7,6.78a4.25,4.25,0,0,1-2.34-4.21c-.78-.77-2.16-1-1.87-2.8-2-1.67-1.69-4.22-2.1-7.25,0-.77-1.32-.23-1.64-.7a19.3,19.3,0,0,0-2.33-4.9c-2-.38-3.63-1.21-5.85-1.41-.46-1-1.34-1.61-1.4-3-1.34-.68-2.8-1.24-2.34-3.73-1.43-.59-2.18-1.76-4.2-1.17-.44-1.32-1.6-1.94-3.27-1.41-.14-1.5-.82-2.45-.94-4C285,321,285.34,321.53,286.28,321.46Zm-155.88-47h1.17a7,7,0,0,0,1.4,2.34c-.81,1.39-1,3-.94,5.61-1.55.73-2.78,2.95-4.9,2.33.14-1.56,2-1.46,1.4-3.73l.47-3.51c-.91,0-2.06.18-2.34-.47C127.6,275.89,129.67,275.85,130.4,274.48Zm-3.27-2.57c0,2.48-3.47,2.58-5.38,2.34C121.07,272.05,125.62,270.49,127.13,271.91Zm-15,16.59a10.73,10.73,0,0,1,2.57-.7c1.11-.6,1.45-2,2.34-2.8,3.54-.21,3.77-5.92,7.24-4.68.09,3.24-4,4.16-2.33,7.48-1.38.54-1.12,3.83-3.28,2.81-.44-.58.72-1.3-.23-1.87a10.72,10.72,0,0,0-4.44,2.8c-1.12-.33-1.75.14-2.57-.23C111.88,290.07,111.72,289.7,112.17,288.5Zm721.75-256L847.57,77H820.41ZM687.45,46.24l9.44,33.86-2.68-.6c-4.56-1-9.53-2-15.18-2.91ZM528.76,25.57h10.88q10.71,0,14.6,4.05a13.76,13.76,0,0,1,3.88,9.87,12.38,12.38,0,0,1-4.47,9.83q-4.47,3.84-15.53,3.84h-9.36Z" transform="translate(-1.63 -0.43)"></path><path class="cls-1" d="M510.4,304.4a22.23,22.23,0,0,0,1.71,16.91c1.17,2,4.18,9.23,17.53,14,8.47,3,22.72,4.54,37.78,2.31.47-.07,8.22-1,11.45-1.63,2.68-.5,34-4.94,39.5-5.38,2.78-.22,15.27-1.48,16.44-1.47,9.63.08,17.79-.27,26.61,1.3,18.18,3.25,20.45,6.82,32.46,13.31,19.38,10.47,47.64,39.44,94.46,48.36a155.43,155.43,0,0,0,51.11,1.6c4.83-.59,22.12-3.8,26.18-4.91,12.3-3.36,25.11-6.06,37.16-9.58,2.05-.6,4-.91,6.07-1.63,1.9-.67,21.62-6.56,23.61-7,3.94-.9,7.75-2.39,11.45-3.27,2.15-.51,24.69-6.82,28.28-7.94,1.84-.58,9-3,10.74-3.51s3.76-.94,5.62-1.64c1.55-.58,3.71-1,4.67-2.57-2.5-1.74-5.1-.19-7.25.47-2.46.76-16.28,4-18,4.44-3.53.91-53.39,12.71-70.59,16.41-1.76.38-27.59,5.84-46.74,9.09-36.94,6.26-78.23-5.84-94.46-14.28-7.79-4.05-33-21.78-40.25-26.29s-18.22-12.24-26-15.91c-2.08-1-9.06-4.12-11.36-4.87-4.51-1.46-22.08-5.84-50-2.48-2.47.3-25.65,3.13-43.18,6.38-23.75,4.4-37,6.82-51.93,3.21A22.34,22.34,0,0,1,520,318.18c-2.68-4.19-3.05-8.12-1.4-12.85,2.44-7,6.7-10.2,12.85-13.55,12.49-6.82,28.26-9.85,30.15-10.29,15.38-3.58,35.14-2.68,52.58-1.87a183,183,0,0,1,25,3c7.72,1.44,15,3.93,22,5.84,1.93.53,17.63,5.71,21,7s33,13.83,34.59,14.49,17,7.42,29.68,9.82c.59.11,2.56,1.19,2.8-.47-.1-2.45-3.77-2.33-6.07-3-2.65-.81-14.47-5.37-18-6.54-1.25-.42-11.54-5.29-12.15-5.61-2.23-1.16-26.73-13.06-30.15-14.25a382.69,382.69,0,0,0-50-18.23c-2.66-.75-23.37-6.2-51-4-8,.65-43.18,3.3-64.28,24.72A35.12,35.12,0,0,0,510.4,304.4Z" transform="translate(-1.63 -0.43)"></path><path class="cls-1" d="M188.38,120.73a40.82,40.82,0,0,0,17.21-9.83,51,51,0,0,0,12.53-18.3q4.51-10.93,4.51-30.75a91.72,91.72,0,0,0-3-24,54,54,0,0,0-9.78-19.83A44.16,44.16,0,0,0,192.72,5Q182.39.42,165.6.43H108.82V124.11H165.6A88.71,88.71,0,0,0,188.38,120.73ZM147,96V28.44h9.53q14.85,0,21.26,7.25t6.41,26.92q0,14.85-2.86,21.47t-7.93,9.28Q168.38,96,156.4,96Z" transform="translate(-1.63 -0.43)"></path><polygon class="cls-1" points="1133.54 95.67 1067.57 95.67 1067.57 71.29 1127.04 71.29 1127.04 46.06 1067.57 46.06 1067.57 26.41 1131.68 26.41 1131.68 0 1029.27 0 1029.27 123.68 1133.54 123.68 1133.54 95.67"></polygon><path class="cls-1" d="M597.48,138.9c18.5-8.12,36.06-9.83,41.22-10.48s10.6-.67,16.13-.94,27.25,1.66,32.48,2.81c4.94,1.09,25,4.48,29.68,5.61,5.1,1.21,10.07,1.8,14.72,3,2.19.58,16.22,4.5,20.8,5.61,2.46.6,5,.88,7.25,1.64s4.26,1.53,6.54,2.1c4.84,1.21,9.28,3,13.56,4.21a89.84,89.84,0,0,1,11.22,3.74,83.31,83.31,0,0,0,9.58,3c1.23.34,3.56,1.91,4.44,0-1.21-1.69-15.61-6.68-21-8.65-3.63-1.32-7.28-2.68-11-3.74-2-.58-4-.93-5.84-1.64s-8.28-3.26-10-3.73c-8-2.17-16.26-5.37-24.07-7.48-3.4-.92-6.46-2.17-9.58-3-8.68-2.42-17.48-4.78-26.18-6.78-4.75-1.09-25-3.6-27.11-3.74-4.3-.28-44.53-5.59-78.29,8.69-6.35,2.68-41.55,14.93-38.33,46.23,1.78,17.31,19.72,29.55,28.75,33.89,9.9,4.76,16.07,5.56,18,5.84,3.07.45,23.59.89,29.69.23,4.71-.5,9.66-.54,14.25-1.16,11.14-1.53,53.35-8.11,62.87-9.35,3.48-.45,36.85-4.76,66.14-1.64a142.43,142.43,0,0,1,40,11c14.15,6.69,34.81,17.25,37.57,18.92,1.61,1,17.12,9.81,29.45,14,2.3.78,12.58,3.68,15.19,4.21,11.49,2.28,16.92,2.09,29.12,1.8,6.08-.15,19-1.59,24.87-2.27,17.21-2,34.29-4.38,50.94-7,5.62-.89,11.3-1.73,16.83-2.57,2.61-.41,5.53-1.06,8.18-1.41,2.47-.32,6.14.45,7.48-2.33-8.81.17-12.2.31-21.79,1-4.92.35-13.59,1.08-18.41,1.59-19.9,2.1-44.84,3.34-63.88,2.63-9.9-.36-8.56.32-18.17-1a163.52,163.52,0,0,1-42-12.41c-8.11-3.82-23.92-12.91-30.85-16.6-3.42-1.81-17.54-9.27-21-10.75-2.68-1.13-29.41-14.41-52.46-15.75-3.41-.19-19.48-2.59-54.1,5.24-5,1.13-38.07,9.42-44.41,10.28-5.29.72-28.73,4.93-42.69,4.28-1.82-.08-19-.43-34.73-8a50.59,50.59,0,0,1-17.7-13.62c-2.86-3.45-3.9-4.89-4.67-9.35-1.27-7.32,2.15-12.57,5.37-16.83C576.32,151.85,590,142.17,597.48,138.9Z" transform="translate(-1.63 -0.43)"></path><polygon class="cls-1" points="970.94 123.68 1016.87 0 978.08 0 950.6 89.01 922.76 0 882.81 0 929.52 123.68 970.94 123.68"></polygon><polygon class="cls-1" points="343.55 95.67 277.57 95.67 277.57 71.29 337.05 71.29 337.05 46.06 277.57 46.06 277.57 26.41 341.69 26.41 341.69 0 239.27 0 239.27 123.68 343.55 123.68 343.55 95.67"></polygon><polygon class="cls-1" points="468.33 95.67 402.35 95.67 402.35 71.29 461.83 71.29 461.83 46.06 402.35 46.06 402.35 26.41 466.47 26.41 466.47 0 364.05 0 364.05 123.68 468.33 123.68 468.33 95.67"></polygon><path class="cls-1" d="M1129.45,277.42c-9.08-1.12-18.55-1.92-27.81-2.57-2-.14-44.43-3-53.75-3-4.7,0-17.39-.26-19.16-.24-6.9.1-21.24,1.34-22,1.41-5.82.51-11.26,1.41-16.6,2.33-2.84.49-14.36,3.38-17.29,4-8.86,1.79-67.39,20.43-79.69,23.2-41.87,9.41-67.68-2.76-70.44-3.57-6.47-1.91-29.22-11.82-31.22-12.86s-22.89-12.18-27.58-14.72c-1.71-.93-52-25.68-56.56-27.11-3.42-1.07-12.28-4.67-13.78-5.14-1-.31-22.44-8-55.16-8.18-5.22,0-11.15.64-16.83,1.17-4.24.39-8.32,1-11.91,1.63-1,.17-3.27-.27-3,1.64.51,1.28,1.73.49,2.57.47,3.67-.09,7-.77,10.52-.7,4.27.08,7.75-.31,11.45,0,53.59,4.4,64,14,74.07,18.23,3.34,1.4,53.65,25.9,58.9,29s34.23,19.52,61.23,32c1.56.72,15.74,6.8,22.66,8,5.85,1,10.39,1.13,20.12.65,5-.25,13.9-2,18.51-2.76,4.46-.78,15.83-4.12,20.12-5.36,2-.59,31.81-11.36,63-23.69,42.17-16.69,132.78-12.42,141-11.84,5.94.41,12.07.46,17.53.7,4.62.2,7.72.28,11.22-.47-1-1.65-3.16-1.21-4.67-1.4C1133.06,277.89,1131.19,277.63,1129.45,277.42Z" transform="translate(-1.63 -0.43)"></path><path class="cls-1" d="M115.21,345.53a11,11,0,0,1-2.11-1.17c.15-1.32-.5-1.83-.93-2.57-1.4-.76-2.16.46-3.27.7-1.22,0-2.44-.54-3.51,0v1.17c1,.63,2.18,1.09,1.87,3C109.15,347.8,114.06,347.34,115.21,345.53Z" transform="translate(-1.63 -0.43)"></path><path class="cls-1" d="M277.87,307.67a2.44,2.44,0,0,0,2.57,1.17,1.6,1.6,0,0,1,.46-.71c.27-1-.49-.91-.46-1.63C279.4,306.05,277.62,306.14,277.87,307.67Z" transform="translate(-1.63 -0.43)"></path><path class="cls-1" d="M254,316.08c.17-1.15.94-1.71.93-3-.16-.85-1.47-.55-1.63-1.4a9.57,9.57,0,0,0-4.91-4.44c-1.67,1.07-.32,3.73-.94,5.84C248.82,314.79,251.3,316.5,254,316.08Z" transform="translate(-1.63 -0.43)"></path><path class="cls-1" d="M121.28,349V347.4a5.87,5.87,0,0,0-5.14-.47C115.93,349.44,119.48,350,121.28,349Z" transform="translate(-1.63 -0.43)"></path><path class="cls-1" d="M280.9,303c-2.19-.47-1.88,1.55-2.33,2.81,1.17-.17,1.6.42,2.33.7A2.8,2.8,0,0,0,280.9,303Z" transform="translate(-1.63 -0.43)"></path><path class="cls-1" d="M125.72,352.07c-.77,1.47.49,2.74.94,3.74,2.42.31,2.89,2.56,5.37,2.8.42-.21.39-.86.94-.93C132.17,354.34,130.49,350.67,125.72,352.07Z" transform="translate(-1.63 -0.43)"></path><path class="cls-1" d="M216.17,274.48c-.92.48-1.89.92-1.64,2.57a7.4,7.4,0,0,1,2.57,2.81c2.1.13,2.54-1.16,3.51-2.11.8-.78,1.66-.83,1.87-1.4C223.63,273.14,215.24,268.79,216.17,274.48Z" transform="translate(-1.63 -0.43)"></path><path class="cls-1" d="M224.35,286.87c5.8,1.35,5.61-5.21,10.51-4.68-.17-1.59,1.35-2.11,1.41-3.5.11-3.07-3.31-5.61-7.25-5.14,0-1.75-1.56-1.87-2.57-2.57a7.3,7.3,0,0,0-2.1-3.51c-1.42.66-1.69-.45-2.81-.7-.4.15-.38.71-.7.93,1.13,2.69,1.93,5.71,3.27,8.18-.6,1.32.27,2.81-.7,4.44.1,1.07,1.06,1.28,1.4,2.11A4.58,4.58,0,0,0,224.35,286.87Z" transform="translate(-1.63 -0.43)"></path><path class="cls-1" d="M208.69,259.06c0,1.48,1.7,1.25,1.87,2.57-.87,1.05-2.37.09-3.74,0-.45,0-.68.34-1.17.23-.88-.2-1-.83-1.87-.7a2.28,2.28,0,0,0-1.63,1.87c1.22,1.34,3.08,2.06,4.9,2.8,1.07,1.51,1.52,2.92,3.28,3,1.3.1,2.29-.87,3.5-1.87s2.55-1.87,2.57-3c0-1.83-2.66-3.45-2.34-5.6C212.38,258,209.32,257.27,208.69,259.06Z" transform="translate(-1.63 -0.43)"></path><path class="cls-1" d="M207.29,238.73c-.87,0-.76-.36-1.17.23-1.43-2.57-4.32-1.71-8.18-2.1-1.41-.15-2.6-.7-3.51-.71s-1.84.45-2.8.47c-2.62.06-5-1.61-7-.93-.25,1.78-1,3.43-.7,5.14.14.9,1,1.57,1.17,2.57a10.23,10.23,0,0,1-.24,4.44,8.66,8.66,0,0,0,1.4,2.34c-1.23.4-.9,2.36-1.16,3.74-2.53,1-3.9,3.26-3.74,6.31.07,1.54,1.07,2.94.7,4.44,1.9,1.5,5.07,2.26,4.2,5.84.75.43,1.26,1.08,2.57.93,2.29-2.31,1.5-5.5,3-7.71a12.83,12.83,0,0,1,2.34-2.1c.83-.56,1.81-.63,2.57-1.17,2.12-1.5,2.59-4,4.67-5.38,2.26,1.76,4.42-.88,5.85-2.1.25-1.41-.21-2.49.7-3.74.51-.71,1.56-.66,2.1-1.17a6.18,6.18,0,0,0,1.64-3.27c.14-1.86-.94-2.84-1.64-3.74C209.14,239.84,208.69,239.09,207.29,238.73Z" transform="translate(-1.63 -0.43)"></path><path class="cls-1" d="M397.93,234.37a42.94,42.94,0,0,0-9-9.26c-.95-.67-5.8-4-6.94-4.64-.54-.31-3.21-1.71-3.71-1.85-10.32-2.72-17-1.86-17.13-1.85-7.25.34-9.95,1.43-14.12,4.17a29.7,29.7,0,0,0-3.94,3,43.76,43.76,0,0,0-8.33,10.42c-.59,1-1.32,2.18-1.86,3.24-3.07,6-4.32,14.61-3.24,22.46a43.88,43.88,0,0,0,2,8.24c3.06,7.72,5.81,11,6.61,11.9a27.2,27.2,0,0,0,12,7.64c13.67,4.26,21.71,2.07,22.69,1.85,6.11-1.42,10.28-3.79,15.28-6.95a39.91,39.91,0,0,0,11.8-12c2.28-3.4,3.28-6.56,4.17-11.11a23.22,23.22,0,0,0-.23-11.81c-.46-1.82-.64-3.83-1.39-6C401.91,239.86,398.24,234.8,397.93,234.37Zm-13.28,17.7a38,38,0,0,1-1.77,6.43,34.86,34.86,0,0,1-4.82,7.08c-2.34,2.22-5.15,4.5-12.31,5.13-11.26,1-19.36-8.51-20.84-11.8-6.79-15.19,3.2-23.49,5.66-25.65,3.49-3.07,8.55-4.15,12.17-4.45,3.47-.29,9,1,11.14,2.52C374.64,231.89,386.87,237.62,384.65,252.07Z" transform="translate(-1.63 -0.43)"></path></svg> 